# xmcd CD database file
#
# Track frame offsets:
#	150
#	15110
#	35660
#	49545
#	74532
#	88222
#	104275
#	114310
#	137205
#	152052
#	177180
#	191422
#	213695
#	243040
#
# Disc length: 3417 seconds
#
# Revision: 0
# Processed by: cddbd v1.5.1PL0 Copyright (c) Steve Scherf et al.
# Submitted via: CDex 1.51
#
DISCID=b80d570e
DTITLE=Helen Humes - Let The Good Times Roll
DYEAR=1996
DGENRE=General Blues
TTITLE0=They Raided The Joint
TTITLE1=That Old Feeling
TTITLE2=Ooo Baba Leba
TTITLE3=For Now And So Long
TTITLE4=Let The Good Times Roll
TTITLE5=My Handy Man
TTITLE6=Guess Who's In Town
TTITLE7=Million Dollar Secret
TTITLE8=He May Be Your Man
TTITLE9=Prisoner Of Love
TTITLE10=Let The Good Times Roll - Take 3
TTITLE11=That Old Feeling - Take2
TTITLE12=Million Dollar Secret - Take 1
TTITLE13=Ooo Baba Leba - Take 1
EXTD=YEAR: 1996
EXTT0=
EXTT1=
EXTT2=
EXTT3=
EXTT4=
EXTT5=
EXTT6=
EXTT7=
EXTT8=
EXTT9=
EXTT10=
EXTT11=
EXTT12=
EXTT13=
PLAYORDER=
